# xmcd
#
# Track frame offsets:
#	150
#	9639
#	21356
#	32234
#	41353
#	53093
#	63060
#	70541
#	76889
#	85359
#	92987
#	102427
#	110027
#	120795
#	129034
#	139838
#
# Disc length: 2054 seconds
#
# Revision: 1
# Processed by: cddbd v1.5.1PL0 Copyright (c) Steve Scherf et al.
# Submitted via: audiograbber 1.83.01
#
DISCID=c6080410
DTITLE=Jim Reeves - Just Call Me Lonesome
DYEAR=1900
DGENRE=
TTITLE0=Dear Heart and Gentle People
TTITLE1=I've lived a lot in my life
TTITLE2=Have I told you lately that I love you
TTITLE3=Home
TTITLE4=Your old love letters
TTITLE5=Just call me lonesome
TTITLE6=Roly Poly
TTITLE7=I'm beginning to forget
TTITLE8=If you were mine
TTITLE9=Till the end of the world
TTITLE10=Everywhere you go
TTITLE11=The Oklahoma Hills
TTITLE12=I Love you more
TTITLE13=Wind up doll
TTITLE14=If heartaches are the fashion
TTITLE15=The highway to nowhere
EXTD=
EXTT0=
EXTT1=
EXTT2=
EXTT3=
EXTT4=
EXTT5=
EXTT6=
EXTT7=
EXTT8=
EXTT9=
EXTT10=
EXTT11=
EXTT12=
EXTT13=
EXTT14=
EXTT15=
PLAYORDER=
